# Blender v3.0.0 OBJ File: ''
# www.blender.org
mtllib wheel.mtl
o wheel
v 0.000000 -0.100000 0.100000
v 0.000000 -1.700000 -0.100000
v 0.000000 -1.700000 0.100000
v 0.000000 -0.100000 -0.100000
v 0.000000 0.100000 1.700000
v 0.000000 -0.100000 1.700000
v 0.000000 -0.100000 -1.700000
v 0.000000 0.100000 0.100000
v 0.000000 0.100000 -0.100000
v 0.000000 0.100000 -1.700000
v 0.000000 1.700000 0.100000
v 0.000000 1.700000 -0.100000
v 0.100000 -0.800000 -0.400000
v 0.100000 -1.700000 -0.500000
v 0.100000 -1.700000 -0.100000
v 0.100000 -0.800000 -0.500000
v 0.100000 -0.500000 -0.100000
v 0.100000 -0.500000 -0.400000
v 0.100000 -0.100000 1.700000
v 0.100000 -0.500000 0.500000
v 0.100000 -0.500000 1.700000
v 0.100000 -0.100000 0.500000
v 0.100000 0.500000 -0.500000
v 0.100000 0.100000 -1.700000
v 0.100000 0.100000 -0.500000
v 0.100000 0.500000 -1.700000
v 0.100000 1.700000 0.500000
v 0.100000 0.500000 0.100000
v 0.100000 0.500000 0.500000
v 0.100000 1.700000 0.100000
v 0.100000 -0.100000 0.100000
v 0.100000 -0.100000 -0.100000
v 0.100000 0.100000 0.100000
v 0.100000 0.100000 -0.100000
v 0.100000 0.500000 0.100000
v 0.100000 0.500000 0.000000
v 0.100000 1.700000 0.100000
v 0.100000 1.700000 0.000000
v 0.200000 -1.700000 -0.100000
v 0.200000 -1.700000 -0.500000
v 0.200000 -0.800000 -0.400000
v 0.200000 -0.800000 -0.500000
v 0.200000 -1.700000 0.100000
v 0.200000 -0.500000 -0.100000
v 0.200000 -0.500000 -0.400000
v 0.200000 -0.500000 1.700000
v 0.200000 -0.500000 0.500000
v 0.200000 -0.100000 1.700000
v 0.200000 -0.100000 0.500000
v 0.200000 -0.100000 0.100000
v 0.200000 -0.100000 -0.100000
v 0.200000 0.100000 1.700000
v 0.200000 0.100000 0.100000
v 0.200000 -0.100000 -1.700000
v 0.200000 0.100000 -0.100000
v 0.200000 0.100000 -0.500000
v 0.200000 0.100000 -1.700000
v 0.200000 0.500000 0.100000
v 0.200000 0.500000 0.000000
v 0.200000 0.500000 -0.500000
v 0.200000 0.500000 -1.700000
v 0.200000 0.500000 0.500000
v 0.200000 1.700000 0.500000
v 0.200000 1.700000 0.100000
v 0.200000 1.700000 0.000000
v 0.200000 1.700000 -0.100000
v 0.100000 -0.100000 1.700000
v 0.000000 0.100000 1.700000
v 0.000000 -0.100000 1.700000
v 0.200000 -0.500000 1.700000
v 0.100000 -0.500000 1.700000
v 0.200000 -0.100000 1.700000
v 0.200000 0.100000 1.700000
v 0.200000 0.500000 0.500000
v 0.100000 1.700000 0.500000
v 0.100000 0.500000 0.500000
v 0.200000 1.700000 0.500000
v 0.100000 0.500000 0.100000
v 0.000000 1.700000 0.100000
v 0.000000 0.100000 0.100000
v 0.100000 1.700000 0.100000
v 0.200000 -1.700000 0.100000
v 0.000000 -0.100000 0.100000
v 0.000000 -1.700000 0.100000
v 0.200000 -0.100000 0.100000
v 0.200000 0.100000 0.100000
v 0.200000 0.500000 0.100000
v 0.200000 0.500000 0.000000
v 0.100000 1.700000 0.000000
v 0.100000 0.500000 0.000000
v 0.200000 1.700000 0.000000
v 0.200000 -0.100000 -0.100000
v 0.100000 0.100000 -0.100000
v 0.100000 -0.100000 -0.100000
v 0.200000 0.100000 -0.100000
v 0.200000 0.100000 -0.500000
v 0.100000 0.500000 -0.500000
v 0.100000 0.100000 -0.500000
v 0.200000 0.500000 -0.500000
v 0.100000 -0.500000 0.500000
v 0.100000 -0.100000 0.500000
v 0.200000 -0.500000 0.500000
v 0.200000 -0.100000 0.500000
v 0.100000 -0.100000 0.100000
v 0.100000 0.100000 0.100000
v 0.200000 -0.100000 0.100000
v 0.200000 0.100000 0.100000
v 0.100000 0.500000 0.100000
v 0.100000 1.700000 0.100000
v 0.200000 0.500000 0.100000
v 0.200000 1.700000 0.100000
v 0.000000 -1.700000 -0.100000
v 0.000000 -0.100000 -0.100000
v 0.100000 -1.700000 -0.100000
v 0.100000 -0.500000 -0.100000
v 0.200000 -0.500000 -0.100000
v 0.200000 -0.100000 -0.100000
v 0.000000 0.100000 -0.100000
v 0.000000 1.700000 -0.100000
v 0.200000 0.100000 -0.100000
v 0.200000 1.700000 -0.100000
v 0.100000 -0.800000 -0.400000
v 0.100000 -0.500000 -0.400000
v 0.200000 -0.800000 -0.400000
v 0.200000 -0.500000 -0.400000
v 0.100000 -1.700000 -0.500000
v 0.100000 -0.800000 -0.500000
v 0.200000 -1.700000 -0.500000
v 0.200000 -0.800000 -0.500000
v 0.000000 -0.100000 -1.700000
v 0.000000 0.100000 -1.700000
v 0.100000 0.100000 -1.700000
v 0.200000 -0.100000 -1.700000
v 0.100000 0.500000 -1.700000
v 0.200000 0.100000 -1.700000
v 0.200000 0.500000 -1.700000
v 0.000000 -1.700000 -0.100000
v 0.200000 -1.700000 0.100000
v 0.000000 -1.700000 0.100000
v 0.100000 -1.700000 -0.100000
v 0.200000 -1.700000 -0.100000
v 0.100000 -1.700000 -0.500000
v 0.200000 -1.700000 -0.500000
v 0.100000 -0.500000 0.500000
v 0.200000 -0.500000 1.700000
v 0.100000 -0.500000 1.700000
v 0.200000 -0.500000 0.500000
v 0.100000 -0.100000 0.500000
v 0.100000 -0.100000 1.700000
v 0.000000 -0.100000 1.700000
v 0.000000 -0.100000 0.100000
v 0.200000 -0.100000 0.500000
v 0.200000 -0.100000 0.100000
v 0.000000 -0.100000 -1.700000
v 0.200000 -0.100000 -0.100000
v 0.000000 -0.100000 -0.100000
v 0.200000 -0.100000 -1.700000
v 0.100000 0.100000 -0.100000
v 0.200000 0.100000 0.100000
v 0.100000 0.100000 0.100000
v 0.200000 0.100000 -0.100000
v 0.100000 0.500000 0.100000
v 0.200000 0.500000 0.500000
v 0.100000 0.500000 0.500000
v 0.200000 0.500000 0.100000
v 0.100000 -0.800000 -0.400000
v 0.200000 -0.800000 -0.400000
v 0.100000 -0.800000 -0.500000
v 0.200000 -0.800000 -0.500000
v 0.100000 -0.500000 -0.100000
v 0.200000 -0.500000 -0.100000
v 0.100000 -0.500000 -0.400000
v 0.200000 -0.500000 -0.400000
v 0.100000 -0.100000 0.100000
v 0.200000 -0.100000 0.100000
v 0.100000 -0.100000 -0.100000
v 0.200000 -0.100000 -0.100000
v 0.000000 0.100000 1.700000
v 0.200000 0.100000 1.700000
v 0.000000 0.100000 0.100000
v 0.200000 0.100000 0.100000
v 0.000000 0.100000 -0.100000
v 0.200000 0.100000 -0.100000
v 0.100000 0.100000 -0.500000
v 0.200000 0.100000 -0.500000
v 0.000000 0.100000 -1.700000
v 0.100000 0.100000 -1.700000
v 0.100000 0.500000 0.100000
v 0.200000 0.500000 0.100000
v 0.100000 0.500000 0.000000
v 0.200000 0.500000 0.000000
v 0.100000 0.500000 -0.500000
v 0.200000 0.500000 -0.500000
v 0.100000 0.500000 -1.700000
v 0.200000 0.500000 -1.700000
v 0.100000 1.700000 0.500000
v 0.200000 1.700000 0.500000
v 0.100000 1.700000 0.100000
v 0.200000 1.700000 0.100000
v 0.000000 1.700000 0.100000
v 0.100000 1.700000 0.000000
v 0.000000 1.700000 -0.100000
v 0.200000 1.700000 0.000000
v 0.200000 1.700000 -0.100000
vt 0.900391 0.500000
vt 0.900391 0.500000
vt 0.900391 0.500000
vt 0.900391 0.500000
vt 0.900391 0.500000
vt 0.900391 0.500000
vt 0.900391 0.500000
vt 0.900391 0.500000
vt 0.900391 0.500000
vt 0.900391 0.500000
vt 0.900391 0.500000
vt 0.900391 0.500000
vt 0.904297 0.500000
vt 0.904297 0.500000
vt 0.904297 0.500000
vt 0.904297 0.500000
vt 0.904297 0.500000
vt 0.904297 0.500000
vt 0.904297 0.500000
vt 0.904297 0.500000
vt 0.904297 0.500000
vt 0.904297 0.500000
vt 0.904297 0.500000
vt 0.904297 0.500000
vt 0.904297 0.500000
vt 0.904297 0.500000
vt 0.904297 0.500000
vt 0.904297 0.500000
vt 0.904297 0.500000
vt 0.904297 0.500000
vt 0.900391 0.500000
vt 0.900391 0.500000
vt 0.900391 0.500000
vt 0.900391 0.500000
vt 0.900391 0.500000
vt 0.900391 0.500000
vt 0.900391 0.500000
vt 0.900391 0.500000
vt 0.904297 0.500000
vt 0.904297 0.500000
vt 0.904297 0.500000
vt 0.904297 0.500000
vt 0.900391 0.500000
vt 0.900391 0.500000
vt 0.900391 0.500000
vt 0.904297 0.500000
vt 0.904297 0.500000
vt 0.904297 0.500000
vt 0.904297 0.500000
vt 0.904297 0.500000
vt 0.904297 0.500000
vt 0.900391 0.500000
vt 0.900391 0.500000
vt 0.900391 0.500000
vt 0.900391 0.500000
vt 0.900391 0.500000
vt 0.900391 0.500000
vt 0.900391 0.500000
vt 0.900391 0.500000
vt 0.900391 0.500000
vt 0.900391 0.500000
vt 0.900391 0.500000
vt 0.900391 0.500000
vt 0.904297 0.500000
vt 0.904297 0.500000
vt 0.904297 0.500000
vt 0.904297 0.500000
vt 0.904297 0.500000
vt 0.904297 0.500000
vt 0.904297 0.500000
vt 0.904297 0.500000
vt 0.900391 0.500000
vt 0.900391 0.500000
vt 0.900391 0.500000
vt 0.900391 0.500000
vt 0.900391 0.500000
vt 0.904297 0.500000
vt 0.904297 0.500000
vt 0.904297 0.500000
vt 0.900391 0.500000
vt 0.904297 0.500000
vt 0.900391 0.500000
vt 0.904297 0.500000
vt 0.904297 0.500000
vt 0.904297 0.500000
vt 0.904297 0.500000
vt 0.900391 0.500000
vt 0.900391 0.500000
vt 0.900391 0.500000
vt 0.900391 0.500000
vt 0.900391 0.500000
vt 0.900391 0.500000
vt 0.900391 0.500000
vt 0.900391 0.500000
vt 0.900391 0.500000
vt 0.900391 0.500000
vt 0.900391 0.500000
vt 0.900391 0.500000
vt 0.900391 0.500000
vt 0.900391 0.500000
vt 0.900391 0.500000
vt 0.900391 0.500000
vt 0.900391 0.500000
vt 0.900391 0.500000
vt 0.904297 0.500000
vt 0.904297 0.500000
vt 0.904297 0.500000
vt 0.904297 0.500000
vt 0.904297 0.500000
vt 0.904297 0.500000
vt 0.904297 0.500000
vt 0.904297 0.500000
vt 0.900391 0.500000
vt 0.900391 0.500000
vt 0.900391 0.500000
vt 0.900391 0.500000
vt 0.904297 0.500000
vt 0.904297 0.500000
vt 0.904297 0.500000
vt 0.904297 0.500000
vt 0.900391 0.500000
vt 0.900391 0.500000
vt 0.900391 0.500000
vt 0.900391 0.500000
vt 0.900391 0.500000
vt 0.900391 0.500000
vt 0.900391 0.500000
vt 0.900391 0.500000
vt 0.900391 0.500000
vt 0.900391 0.500000
vt 0.904297 0.500000
vt 0.904297 0.500000
vt 0.904297 0.500000
vt 0.904297 0.500000
vt 0.904297 0.500000
vt 0.904297 0.500000
vt 0.904297 0.500000
vt 0.904297 0.500000
vt 0.900391 0.500000
vt 0.900391 0.500000
vt 0.900391 0.500000
vt 0.900391 0.500000
vt 0.904297 0.500000
vt 0.904297 0.500000
vt 0.904297 0.500000
vt 0.900391 0.500000
vt 0.904297 0.500000
vt 0.900391 0.500000
vt 0.900391 0.500000
vt 0.900391 0.500000
vt 0.900391 0.500000
vt 0.900391 0.500000
vt 0.904297 0.500000
vt 0.904297 0.500000
vt 0.904297 0.500000
vt 0.904297 0.500000
vt 0.904297 0.500000
vt 0.904297 0.500000
vt 0.904297 0.500000
vt 0.904297 0.500000
vt 0.900391 0.500000
vt 0.900391 0.500000
vt 0.900391 0.500000
vt 0.900391 0.500000
vt 0.900391 0.500000
vt 0.900391 0.500000
vt 0.900391 0.500000
vt 0.900391 0.500000
vt 0.900391 0.500000
vt 0.900391 0.500000
vt 0.900391 0.500000
vt 0.900391 0.500000
vt 0.900391 0.500000
vt 0.900391 0.500000
vt 0.904297 0.500000
vt 0.904297 0.500000
vt 0.904297 0.500000
vt 0.904297 0.500000
vt 0.904297 0.500000
vt 0.904297 0.500000
vt 0.904297 0.500000
vt 0.904297 0.500000
vt 0.904297 0.500000
vt 0.904297 0.500000
vt 0.904297 0.500000
vt 0.904297 0.500000
vt 0.900391 0.500000
vt 0.900391 0.500000
vt 0.900391 0.500000
vt 0.900391 0.500000
vt 0.900391 0.500000
vt 0.900391 0.500000
vt 0.900391 0.500000
vt 0.900391 0.500000
vt 0.900391 0.500000
vt 0.900391 0.500000
vt 0.900391 0.500000
vt 0.900391 0.500000
vt 0.900391 0.500000
vt 0.900391 0.500000
vt 0.900391 0.500000
vt 0.900391 0.500000
vt 0.900391 0.500000
vt 0.900391 0.500000
vt 0.904297 0.500000
vt 0.904297 0.500000
vt 0.904297 0.500000
vt 0.904297 0.500000
vt 0.904297 0.500000
vt 0.904297 0.500000
vt 0.904297 0.500000
vt 0.904297 0.500000
vt 0.900391 0.500000
vt 0.900391 0.500000
vt 0.900391 0.500000
vt 0.900391 0.500000
vt 0.900391 0.500000
vt 0.900391 0.500000
vn -1.0000 0.0000 0.0000
vn 1.0000 0.0000 0.0000
vn 0.0000 -0.0000 1.0000
vn 0.0000 0.0000 -1.0000
vn 0.0000 -1.0000 0.0000
vn 0.0000 1.0000 0.0000
usemtl palette
s 1
f 1/1/1 2/2/1 3/3/1
f 4/4/1 2/2/1 1/1/1
f 5/5/1 1/1/1 6/6/1
f 5/5/1 7/7/1 4/4/1
f 5/5/1 4/4/1 1/1/1
f 8/8/1 7/7/1 5/5/1
f 9/9/1 7/7/1 8/8/1
f 10/10/1 7/7/1 9/9/1
f 11/11/1 9/9/1 8/8/1
f 12/12/1 9/9/1 11/11/1
f 13/13/1 14/14/1 15/15/1
f 16/16/1 14/14/1 13/13/1
f 17/17/1 13/13/1 15/15/1
f 18/18/1 13/13/1 17/17/1
f 19/19/1 20/20/1 21/21/1
f 22/22/1 20/20/1 19/19/1
f 23/23/1 24/24/1 25/25/1
f 26/26/1 24/24/1 23/23/1
f 27/27/1 28/28/1 29/29/1
f 30/30/1 28/28/1 27/27/1
f 31/31/2 32/32/2 33/33/2
f 33/33/2 32/32/2 34/34/2
f 35/35/2 36/36/2 37/37/2
f 37/37/2 36/36/2 38/38/2
f 39/39/2 40/40/2 41/41/2
f 41/41/2 40/40/2 42/42/2
f 43/43/2 39/44/2 44/45/2
f 39/39/2 41/41/2 44/46/2
f 44/46/2 41/41/2 45/47/2
f 46/48/2 47/49/2 48/50/2
f 48/50/2 47/49/2 49/51/2
f 43/43/2 44/45/2 50/52/2
f 50/52/2 44/45/2 51/53/2
f 49/54/2 50/52/2 52/55/2
f 48/56/2 49/54/2 52/55/2
f 52/55/2 50/52/2 53/57/2
f 51/53/2 54/58/2 55/59/2
f 55/59/2 54/58/2 56/60/2
f 56/60/2 54/58/2 57/61/2
f 53/57/2 55/59/2 58/62/2
f 58/62/2 55/59/2 59/63/2
f 56/64/2 57/65/2 60/66/2
f 60/66/2 57/65/2 61/67/2
f 62/68/2 58/69/2 63/70/2
f 63/70/2 58/69/2 64/71/2
f 59/63/2 55/59/2 65/72/2
f 65/72/2 55/59/2 66/73/2
f 67/74/3 68/75/3 69/76/3
f 70/77/3 67/78/3 71/79/3
f 72/80/3 68/75/3 67/74/3
f 72/81/3 67/78/3 70/77/3
f 73/82/3 68/75/3 72/80/3
f 74/83/3 75/84/3 76/85/3
f 77/86/3 75/84/3 74/83/3
f 78/87/3 79/88/3 80/89/3
f 81/90/3 79/88/3 78/87/3
f 82/91/3 83/92/3 84/93/3
f 85/94/3 83/92/3 82/91/3
f 86/95/3 78/87/3 80/89/3
f 87/96/3 78/87/3 86/95/3
f 88/97/3 89/98/3 90/99/3
f 91/100/3 89/98/3 88/97/3
f 92/101/3 93/102/3 94/103/3
f 95/104/3 93/102/3 92/101/3
f 96/105/3 97/106/3 98/107/3
f 99/108/3 97/106/3 96/105/3
f 100/109/4 101/110/4 102/111/4
f 102/111/4 101/110/4 103/112/4
f 104/113/4 105/114/4 106/115/4
f 106/115/4 105/114/4 107/116/4
f 108/117/4 109/118/4 110/119/4
f 110/119/4 109/118/4 111/120/4
f 112/121/4 113/122/4 114/123/4
f 114/123/4 113/122/4 115/124/4
f 115/124/4 113/122/4 116/125/4
f 116/125/4 113/122/4 117/126/4
f 118/127/4 119/128/4 120/129/4
f 120/129/4 119/128/4 121/130/4
f 122/131/4 123/132/4 124/133/4
f 124/133/4 123/132/4 125/134/4
f 126/135/4 127/136/4 128/137/4
f 128/137/4 127/136/4 129/138/4
f 130/139/4 131/140/4 132/141/4
f 130/139/4 132/141/4 133/142/4
f 132/143/4 134/144/4 135/145/4
f 133/142/4 132/141/4 135/146/4
f 135/145/4 134/144/4 136/147/4
f 137/148/5 138/149/5 139/150/5
f 140/151/5 138/149/5 137/148/5
f 141/152/5 138/149/5 140/151/5
f 142/153/5 141/154/5 140/155/5
f 143/156/5 141/154/5 142/153/5
f 144/157/5 145/158/5 146/159/5
f 147/160/5 145/158/5 144/157/5
f 148/161/5 149/162/5 150/163/5
f 151/164/5 148/161/5 150/163/5
f 151/164/5 152/165/5 148/161/5
f 153/166/5 152/165/5 151/164/5
f 154/167/5 155/168/5 156/169/5
f 157/170/5 155/168/5 154/167/5
f 158/171/5 159/172/5 160/173/5
f 161/174/5 159/172/5 158/171/5
f 162/175/5 163/176/5 164/177/5
f 165/178/5 163/176/5 162/175/5
f 166/179/6 167/180/6 168/181/6
f 168/181/6 167/180/6 169/182/6
f 170/183/6 171/184/6 172/185/6
f 172/185/6 171/184/6 173/186/6
f 174/187/6 175/188/6 176/189/6
f 176/189/6 175/188/6 177/190/6
f 178/191/6 179/192/6 180/193/6
f 180/193/6 179/192/6 181/194/6
f 182/195/6 183/196/6 184/197/6
f 184/197/6 183/196/6 185/198/6
f 182/195/6 184/197/6 186/199/6
f 186/199/6 184/197/6 187/200/6
f 188/201/6 189/202/6 190/203/6
f 190/203/6 189/202/6 191/204/6
f 192/205/6 193/206/6 194/207/6
f 194/207/6 193/206/6 195/208/6
f 196/209/6 197/210/6 198/211/6
f 198/211/6 197/210/6 199/212/6
f 200/213/6 198/214/6 201/215/6
f 200/213/6 201/215/6 202/216/6
f 201/215/6 203/217/6 202/216/6
f 202/216/6 203/217/6 204/218/6
