# MagicaVoxel @ Ephtracy

# group
o 

# material
mtllib Stone2.mtl
usemtl palette

# normals
vn -1 0 0
vn 1 0 0
vn 0 0 1
vn 0 0 -1
vn 0 -1 0
vn 0 1 0

# texcoords
vt 0.982422 0.5
vt 0.986328 0.5
vt 0.990234 0.5

# verts
v -0.4 0.3 0.1
v -0.4 0.3 -0.1
v -0.4 0.5 0.1
v -0.4 0.5 -0.1
v -0.3 0.2 0.1
v -0.3 0.2 0
v -0.3 0.2 -0.1
v -0.3 0.3 0.2
v -0.3 0.3 0.1
v -0.3 0.3 0
v -0.3 0.3 -0.1
v -0.3 0.3 -0.2
v -0.3 0.4 0.2
v -0.3 0.4 0.1
v -0.3 0.5 0.2
v -0.3 0.5 0.1
v -0.3 0.5 0
v -0.3 0.5 -0.1
v -0.3 0.5 -0.2
v -0.3 0.6 0.2
v -0.3 0.6 0.1
v -0.3 0.6 0
v -0.3 0.6 -0.1
v -0.2 0.2 0.2
v -0.2 0.2 0.1
v -0.2 0.2 -0.1
v -0.2 0.2 -0.2
v -0.2 0.3 0.3
v -0.2 0.3 0.2
v -0.2 0.3 0.1
v -0.2 0.3 -0.1
v -0.2 0.3 -0.2
v -0.2 0.4 0.2
v -0.2 0.4 -0.2
v -0.2 0.4 -0.3
v -0.2 0.5 0.3
v -0.2 0.5 0.2
v -0.2 0.5 -0.1
v -0.2 0.5 -0.2
v -0.2 0.5 -0.3
v -0.2 0.6 -0.1
v -0.2 0.6 -0.2
v -0.1 0.2 0.3
v -0.1 0.2 0.2
v -0.1 0.3 0.3
v -0.1 0.3 0.2
v -0.1 0.3 -0.2
v -0.1 0.3 -0.3
v -0.1 0.4 -0.2
v -0.1 0.4 -0.3
v -0.1 0.5 0.3
v -0.1 0.5 0.2
v -0.1 0.5 -0.2
v -0.1 0.5 -0.3
v -0.1 0.6 0.3
v -0.1 0.6 0.2
v -0.1 0.6 -0.2
v -0.1 0.6 -0.3
v 0.1 0.2 0.3
v 0.1 0.2 0.2
v 0.1 0.3 0.3
v 0.1 0.3 0.2
v 0.1 0.4 0.3
v 0.1 0.4 0.2
v 0.1 0.5 0.2
v 0.1 0.5 -0.2
v 0.1 0.5 -0.3
v 0.1 0.6 0.3
v 0.1 0.6 0.2
v 0.1 0.6 -0.2
v 0.1 0.6 -0.3
v 0.2 0.2 0.2
v 0.2 0.2 0.1
v 0.2 0.2 -0.1
v 0.2 0.2 -0.2
v 0.2 0.3 0.3
v 0.2 0.3 0.2
v 0.2 0.3 0.1
v 0.2 0.3 -0.1
v 0.2 0.3 -0.2
v 0.2 0.3 -0.3
v 0.2 0.4 0.3
v 0.2 0.4 0.2
v 0.2 0.5 0.2
v 0.2 0.5 0.1
v 0.2 0.5 -0.1
v 0.2 0.5 -0.2
v 0.2 0.5 -0.3
v 0.2 0.6 0.2
v 0.2 0.6 0.1
v 0.2 0.6 -0.1
v 0.2 0.6 -0.2
v 0.3 0.2 0.1
v 0.3 0.2 0
v 0.3 0.2 -0.1
v 0.3 0.3 0.2
v 0.3 0.3 0.1
v 0.3 0.3 0
v 0.3 0.3 -0.1
v 0.3 0.3 -0.2
v 0.3 0.4 0.2
v 0.3 0.4 0.1
v 0.3 0.5 0.2
v 0.3 0.5 0.1
v 0.3 0.5 0
v 0.3 0.5 -0.1
v 0.3 0.5 -0.2
v 0.3 0.6 0.1
v 0.3 0.6 0
v 0.3 0.6 -0.1
v 0.4 0.3 0.1
v 0.4 0.3 0
v 0.4 0.3 -0.1
v 0.4 0.4 0.1
v 0.4 0.4 0
v 0.4 0.5 0.1
v 0.4 0.5 -0.1
v -0.2 0.3 0.3
v -0.2 0.5 0.3
v -0.1 0.2 0.3
v -0.1 0.3 0.3
v -0.1 0.5 0.3
v -0.1 0.6 0.3
v 0 0.4 0.3
v 0 0.5 0.3
v 0.1 0.2 0.3
v 0.1 0.3 0.3
v 0.1 0.4 0.3
v 0.1 0.6 0.3
v 0.2 0.3 0.3
v 0.2 0.4 0.3
v -0.3 0.3 0.2
v -0.3 0.4 0.2
v -0.3 0.5 0.2
v -0.3 0.6 0.2
v -0.2 0.2 0.2
v -0.2 0.3 0.2
v -0.2 0.4 0.2
v -0.2 0.5 0.2
v -0.2 0.6 0.2
v -0.1 0.2 0.2
v -0.1 0.3 0.2
v -0.1 0.5 0.2
v -0.1 0.6 0.2
v 0.1 0.2 0.2
v 0.1 0.3 0.2
v 0.1 0.4 0.2
v 0.1 0.5 0.2
v 0.1 0.6 0.2
v 0.2 0.2 0.2
v 0.2 0.3 0.2
v 0.2 0.4 0.2
v 0.2 0.5 0.2
v 0.2 0.6 0.2
v 0.3 0.3 0.2
v 0.3 0.4 0.2
v 0.3 0.5 0.2
v -0.4 0.3 0.1
v -0.4 0.5 0.1
v -0.3 0.2 0.1
v -0.3 0.3 0.1
v -0.3 0.4 0.1
v -0.3 0.5 0.1
v -0.2 0.2 0.1
v -0.2 0.3 0.1
v 0.2 0.2 0.1
v 0.2 0.3 0.1
v 0.2 0.5 0.1
v 0.2 0.6 0.1
v 0.3 0.2 0.1
v 0.3 0.3 0.1
v 0.3 0.4 0.1
v 0.3 0.5 0.1
v 0.3 0.6 0.1
v 0.4 0.3 0.1
v 0.4 0.4 0.1
v 0.4 0.5 0.1
v -0.4 0.3 -0.1
v -0.4 0.5 -0.1
v -0.3 0.2 -0.1
v -0.3 0.3 -0.1
v -0.3 0.5 -0.1
v -0.3 0.6 -0.1
v -0.2 0.2 -0.1
v -0.2 0.3 -0.1
v -0.2 0.5 -0.1
v -0.2 0.6 -0.1
v 0.2 0.2 -0.1
v 0.2 0.3 -0.1
v 0.2 0.5 -0.1
v 0.2 0.6 -0.1
v 0.3 0.2 -0.1
v 0.3 0.3 -0.1
v 0.3 0.5 -0.1
v 0.3 0.6 -0.1
v 0.4 0.3 -0.1
v 0.4 0.5 -0.1
v -0.3 0.3 -0.2
v -0.3 0.5 -0.2
v -0.2 0.2 -0.2
v -0.2 0.3 -0.2
v -0.2 0.4 -0.2
v -0.2 0.5 -0.2
v -0.2 0.6 -0.2
v -0.1 0.2 -0.2
v -0.1 0.3 -0.2
v -0.1 0.4 -0.2
v -0.1 0.5 -0.2
v -0.1 0.6 -0.2
v 0 0.2 -0.2
v 0 0.3 -0.2
v 0.1 0.5 -0.2
v 0.1 0.6 -0.2
v 0.2 0.2 -0.2
v 0.2 0.3 -0.2
v 0.2 0.5 -0.2
v 0.2 0.6 -0.2
v 0.3 0.3 -0.2
v 0.3 0.5 -0.2
v -0.2 0.4 -0.3
v -0.2 0.5 -0.3
v -0.1 0.3 -0.3
v -0.1 0.4 -0.3
v -0.1 0.5 -0.3
v -0.1 0.6 -0.3
v 0 0.3 -0.3
v 0 0.4 -0.3
v 0 0.5 -0.3
v 0 0.6 -0.3
v 0.1 0.5 -0.3
v 0.1 0.6 -0.3
v 0.2 0.3 -0.3
v 0.2 0.5 -0.3
v -0.1 0.2 0.3
v 0.1 0.2 0.3
v -0.2 0.2 0.2
v -0.1 0.2 0.2
v 0 0.2 0.2
v 0.1 0.2 0.2
v 0.2 0.2 0.2
v -0.3 0.2 0.1
v -0.2 0.2 0.1
v -0.1 0.2 0.1
v 0 0.2 0.1
v 0.1 0.2 0.1
v 0.2 0.2 0.1
v 0.3 0.2 0.1
v -0.3 0.2 0
v -0.2 0.2 0
v -0.1 0.2 0
v 0.2 0.2 0
v 0.3 0.2 0
v -0.3 0.2 -0.1
v -0.2 0.2 -0.1
v -0.1 0.2 -0.1
v 0 0.2 -0.1
v 0.2 0.2 -0.1
v 0.3 0.2 -0.1
v -0.2 0.2 -0.2
v -0.1 0.2 -0.2
v 0 0.2 -0.2
v 0.2 0.2 -0.2
v -0.2 0.3 0.3
v -0.1 0.3 0.3
v 0.1 0.3 0.3
v 0.2 0.3 0.3
v -0.3 0.3 0.2
v -0.2 0.3 0.2
v -0.1 0.3 0.2
v 0.1 0.3 0.2
v 0.2 0.3 0.2
v 0.3 0.3 0.2
v -0.4 0.3 0.1
v -0.3 0.3 0.1
v -0.2 0.3 0.1
v 0.2 0.3 0.1
v 0.3 0.3 0.1
v 0.4 0.3 0.1
v -0.3 0.3 0
v 0.3 0.3 0
v 0.4 0.3 0
v -0.4 0.3 -0.1
v -0.3 0.3 -0.1
v -0.2 0.3 -0.1
v 0.2 0.3 -0.1
v 0.3 0.3 -0.1
v 0.4 0.3 -0.1
v -0.3 0.3 -0.2
v -0.2 0.3 -0.2
v -0.1 0.3 -0.2
v 0 0.3 -0.2
v 0.2 0.3 -0.2
v 0.3 0.3 -0.2
v -0.1 0.3 -0.3
v 0 0.3 -0.3
v 0.2 0.3 -0.3
v -0.2 0.4 -0.2
v -0.1 0.4 -0.2
v -0.2 0.4 -0.3
v -0.1 0.4 -0.3
v 0.1 0.4 0.3
v 0.2 0.4 0.3
v 0.1 0.4 0.2
v 0.2 0.4 0.2
v -0.2 0.5 0.3
v -0.1 0.5 0.3
v -0.2 0.5 0.2
v -0.1 0.5 0.2
v 0.2 0.5 0.2
v 0.3 0.5 0.2
v -0.4 0.5 0.1
v -0.3 0.5 0.1
v 0.2 0.5 0.1
v 0.3 0.5 0.1
v 0.4 0.5 0.1
v -0.3 0.5 0
v 0.3 0.5 0
v -0.4 0.5 -0.1
v -0.3 0.5 -0.1
v -0.2 0.5 -0.1
v 0.2 0.5 -0.1
v 0.3 0.5 -0.1
v 0.4 0.5 -0.1
v -0.3 0.5 -0.2
v -0.2 0.5 -0.2
v -0.1 0.5 -0.2
v 0.1 0.5 -0.2
v 0.2 0.5 -0.2
v 0.3 0.5 -0.2
v -0.2 0.5 -0.3
v -0.1 0.5 -0.3
v 0.1 0.5 -0.3
v 0.2 0.5 -0.3
v -0.1 0.6 0.3
v 0.1 0.6 0.3
v -0.3 0.6 0.2
v -0.2 0.6 0.2
v -0.1 0.6 0.2
v 0 0.6 0.2
v 0.1 0.6 0.2
v 0.2 0.6 0.2
v -0.3 0.6 0.1
v -0.2 0.6 0.1
v -0.1 0.6 0.1
v 0.1 0.6 0.1
v 0.2 0.6 0.1
v 0.3 0.6 0.1
v -0.3 0.6 0
v -0.2 0.6 0
v 0 0.6 0
v 0.2 0.6 0
v 0.3 0.6 0
v -0.3 0.6 -0.1
v -0.2 0.6 -0.1
v -0.1 0.6 -0.1
v 0 0.6 -0.1
v 0.2 0.6 -0.1
v 0.3 0.6 -0.1
v -0.2 0.6 -0.2
v -0.1 0.6 -0.2
v 0 0.6 -0.2
v 0.1 0.6 -0.2
v 0.2 0.6 -0.2
v -0.1 0.6 -0.3
v 0 0.6 -0.3
v 0.1 0.6 -0.3

# faces
f 3/3/1 2/3/1 1/3/1
f 4/3/1 2/3/1 3/3/1
f 9/2/1 6/2/1 5/2/1
f 10/3/1 7/3/1 6/3/1
f 10/2/1 6/2/1 9/2/1
f 11/3/1 7/3/1 10/3/1
f 13/3/1 9/3/1 8/3/1
f 14/3/1 9/3/1 13/3/1
f 15/1/1 14/1/1 13/1/1
f 16/1/1 14/1/1 15/1/1
f 18/3/1 12/3/1 11/3/1
f 19/3/1 12/3/1 18/3/1
f 20/2/1 16/2/1 15/2/1
f 21/1/1 17/1/1 16/1/1
f 21/2/1 16/2/1 20/2/1
f 22/3/1 18/3/1 17/3/1
f 22/1/1 17/1/1 21/1/1
f 23/3/1 18/3/1 22/3/1
f 29/3/1 25/3/1 24/3/1
f 30/3/1 25/3/1 29/3/1
f 31/2/1 27/2/1 26/2/1
f 32/2/1 27/2/1 31/2/1
f 33/3/1 29/3/1 28/3/1
f 36/3/1 33/3/1 28/3/1
f 37/3/1 33/3/1 36/3/1
f 39/3/1 35/3/1 34/3/1
f 40/3/1 35/3/1 39/3/1
f 41/2/1 39/2/1 38/2/1
f 42/2/1 39/2/1 41/2/1
f 45/1/1 44/1/1 43/1/1
f 46/1/1 44/1/1 45/1/1
f 49/2/1 48/2/1 47/2/1
f 50/2/1 48/2/1 49/2/1
f 55/1/1 52/1/1 51/1/1
f 56/1/1 52/1/1 55/1/1
f 57/2/1 54/2/1 53/2/1
f 58/2/1 54/2/1 57/2/1
f 59/1/2 60/1/2 61/1/2
f 61/1/2 60/1/2 62/1/2
f 63/1/2 64/1/2 65/1/2
f 63/1/2 65/1/2 68/1/2
f 68/1/2 65/1/2 69/1/2
f 66/1/2 67/1/2 70/1/2
f 70/1/2 67/1/2 71/1/2
f 72/3/2 73/3/2 77/3/2
f 77/3/2 73/3/2 78/3/2
f 74/2/2 75/2/2 79/2/2
f 79/2/2 75/2/2 80/2/2
f 76/1/2 77/1/2 82/1/2
f 82/1/2 77/1/2 83/1/2
f 80/3/2 81/3/2 87/3/2
f 87/3/2 81/3/2 88/3/2
f 84/2/2 85/2/2 89/2/2
f 89/2/2 85/2/2 90/2/2
f 86/2/2 87/2/2 91/2/2
f 91/2/2 87/2/2 92/2/2
f 93/3/2 94/3/2 97/3/2
f 94/2/2 95/2/2 98/2/2
f 97/3/2 94/3/2 98/3/2
f 98/2/2 95/2/2 99/2/2
f 96/3/2 97/3/2 101/3/2
f 101/3/2 97/3/2 102/3/2
f 101/2/2 102/2/2 103/2/2
f 103/2/2 102/2/2 104/2/2
f 99/3/2 100/3/2 106/3/2
f 106/3/2 100/3/2 107/3/2
f 104/2/2 105/2/2 108/2/2
f 105/3/2 106/3/2 109/3/2
f 108/2/2 105/2/2 109/2/2
f 109/3/2 106/3/2 110/3/2
f 111/3/2 112/3/2 114/3/2
f 112/2/2 113/2/2 115/2/2
f 114/3/2 112/3/2 115/3/2
f 114/2/2 115/2/2 116/2/2
f 115/2/2 113/2/2 117/2/2
f 116/2/2 115/2/2 117/2/2
f 121/3/3 119/3/3 118/3/3
f 122/3/3 119/3/3 121/3/3
f 124/3/3 122/3/3 121/3/3
f 125/1/3 123/1/3 122/1/3
f 125/3/3 122/3/3 124/3/3
f 126/1/3 121/1/3 120/1/3
f 127/3/3 124/3/3 121/3/3
f 127/1/3 121/1/3 126/1/3
f 128/1/3 125/1/3 124/1/3
f 128/3/3 124/3/3 127/3/3
f 129/1/3 123/1/3 125/1/3
f 129/1/3 125/1/3 128/1/3
f 130/1/3 128/1/3 127/1/3
f 131/1/3 128/1/3 130/1/3
f 137/3/3 133/3/3 132/3/3
f 138/1/3 134/1/3 133/1/3
f 138/3/3 133/3/3 137/3/3
f 139/2/3 135/2/3 134/2/3
f 139/1/3 134/1/3 138/1/3
f 140/2/3 135/2/3 139/2/3
f 141/3/3 137/3/3 136/3/3
f 142/3/3 137/3/3 141/3/3
f 143/3/3 140/3/3 139/3/3
f 144/3/3 140/3/3 143/3/3
f 150/3/3 146/3/3 145/3/3
f 151/3/3 146/3/3 150/3/3
f 152/3/3 148/3/3 147/3/3
f 153/2/3 149/2/3 148/2/3
f 153/3/3 148/3/3 152/3/3
f 154/2/3 149/2/3 153/2/3
f 155/3/3 152/3/3 151/3/3
f 156/2/3 153/2/3 152/2/3
f 156/3/3 152/3/3 155/3/3
f 157/2/3 153/2/3 156/2/3
f 161/3/3 159/3/3 158/3/3
f 162/3/3 159/3/3 161/3/3
f 163/3/3 159/3/3 162/3/3
f 164/2/3 161/2/3 160/2/3
f 165/2/3 161/2/3 164/2/3
f 170/3/3 167/3/3 166/3/3
f 171/3/3 167/3/3 170/3/3
f 173/2/3 169/2/3 168/2/3
f 174/2/3 169/2/3 173/2/3
f 175/3/3 172/3/3 171/3/3
f 176/2/3 173/2/3 172/2/3
f 176/3/3 172/3/3 175/3/3
f 177/2/3 173/2/3 176/2/3
f 178/3/4 179/3/4 181/3/4
f 181/3/4 179/3/4 182/3/4
f 180/3/4 181/3/4 184/3/4
f 184/3/4 181/3/4 185/3/4
f 182/3/4 183/3/4 186/3/4
f 186/3/4 183/3/4 187/3/4
f 188/2/4 189/2/4 192/2/4
f 192/2/4 189/2/4 193/2/4
f 190/3/4 191/3/4 194/3/4
f 194/3/4 191/3/4 195/3/4
f 193/2/4 194/2/4 196/2/4
f 196/2/4 194/2/4 197/2/4
f 198/3/4 199/3/4 201/3/4
f 201/3/4 199/3/4 202/3/4
f 202/3/4 199/3/4 203/3/4
f 200/2/4 201/2/4 205/2/4
f 201/1/4 202/1/4 206/1/4
f 205/2/4 201/2/4 206/2/4
f 206/1/4 202/1/4 207/1/4
f 203/2/4 204/2/4 208/2/4
f 208/2/4 204/2/4 209/2/4
f 205/3/4 206/3/4 210/3/4
f 210/3/4 206/3/4 211/3/4
f 210/2/4 211/2/4 214/2/4
f 214/2/4 211/2/4 215/2/4
f 212/2/4 213/2/4 216/2/4
f 216/2/4 213/2/4 217/2/4
f 215/3/4 216/3/4 218/3/4
f 218/3/4 216/3/4 219/3/4
f 220/3/4 221/3/4 223/3/4
f 223/3/4 221/3/4 224/3/4
f 222/2/4 223/2/4 226/2/4
f 223/3/4 224/3/4 227/3/4
f 226/2/4 223/2/4 227/2/4
f 224/2/4 225/2/4 228/2/4
f 227/3/4 224/3/4 228/3/4
f 228/2/4 225/2/4 229/2/4
f 226/3/4 227/3/4 230/3/4
f 227/3/4 228/3/4 230/3/4
f 228/1/4 229/1/4 230/1/4
f 230/1/4 229/1/4 231/1/4
f 226/3/4 230/3/4 232/3/4
f 232/3/4 230/3/4 233/3/4
f 237/1/5 235/1/5 234/1/5
f 238/1/5 235/1/5 237/1/5
f 239/1/5 235/1/5 238/1/5
f 242/3/5 237/3/5 236/3/5
f 243/2/5 238/2/5 237/2/5
f 243/3/5 237/3/5 242/3/5
f 244/1/5 239/1/5 238/1/5
f 244/2/5 238/2/5 243/2/5
f 245/3/5 240/3/5 239/3/5
f 245/1/5 239/1/5 244/1/5
f 246/3/5 240/3/5 245/3/5
f 248/2/5 242/2/5 241/2/5
f 249/1/5 244/1/5 243/1/5
f 249/2/5 242/2/5 248/2/5
f 249/1/5 243/1/5 242/1/5
f 250/1/5 244/1/5 249/1/5
f 251/3/5 247/3/5 246/3/5
f 251/2/5 246/2/5 245/2/5
f 251/2/5 245/2/5 244/2/5
f 252/3/5 247/3/5 251/3/5
f 253/3/5 250/3/5 249/3/5
f 253/3/5 249/3/5 248/3/5
f 254/3/5 250/3/5 253/3/5
f 255/1/5 244/1/5 250/1/5
f 255/3/5 250/3/5 254/3/5
f 256/2/5 252/2/5 251/2/5
f 256/1/5 244/1/5 255/1/5
f 256/2/5 251/2/5 244/2/5
f 257/2/5 252/2/5 256/2/5
f 258/2/5 252/2/5 257/2/5
f 259/2/5 255/2/5 254/2/5
f 260/3/5 256/3/5 255/3/5
f 260/2/5 255/2/5 259/2/5
f 261/2/5 257/2/5 256/2/5
f 261/3/5 256/3/5 260/3/5
f 262/2/5 257/2/5 261/2/5
f 268/3/5 264/3/5 263/3/5
f 269/3/5 264/3/5 268/3/5
f 270/1/5 266/1/5 265/1/5
f 271/1/5 266/1/5 270/1/5
f 274/3/5 268/3/5 267/3/5
f 275/3/5 268/3/5 274/3/5
f 276/3/5 272/3/5 271/3/5
f 277/3/5 272/3/5 276/3/5
f 279/3/5 274/3/5 273/3/5
f 280/3/5 278/3/5 277/3/5
f 281/3/5 278/3/5 280/3/5
f 282/3/5 279/3/5 273/3/5
f 283/3/5 279/3/5 282/3/5
f 286/2/5 281/2/5 280/2/5
f 287/2/5 281/2/5 286/2/5
f 288/3/5 284/3/5 283/3/5
f 289/3/5 284/3/5 288/3/5
f 292/3/5 286/3/5 285/3/5
f 293/3/5 286/3/5 292/3/5
f 294/2/5 291/2/5 290/2/5
f 295/3/5 292/3/5 291/3/5
f 295/2/5 291/2/5 294/2/5
f 296/3/5 292/3/5 295/3/5
f 299/3/5 298/3/5 297/3/5
f 300/3/5 298/3/5 299/3/5
f 301/1/6 302/1/6 303/1/6
f 303/1/6 302/1/6 304/1/6
f 305/3/6 306/3/6 307/3/6
f 307/3/6 306/3/6 308/3/6
f 309/2/6 310/2/6 313/2/6
f 313/2/6 310/2/6 314/2/6
f 311/3/6 312/3/6 316/3/6
f 314/2/6 315/2/6 317/2/6
f 311/3/6 316/3/6 318/3/6
f 318/3/6 316/3/6 319/3/6
f 317/2/6 315/2/6 322/2/6
f 322/2/6 315/2/6 323/2/6
f 319/3/6 320/3/6 324/3/6
f 324/3/6 320/3/6 325/3/6
f 321/3/6 322/3/6 328/3/6
f 328/3/6 322/3/6 329/3/6
f 325/3/6 326/3/6 330/3/6
f 330/3/6 326/3/6 331/3/6
f 327/3/6 328/3/6 332/3/6
f 332/3/6 328/3/6 333/3/6
f 334/1/6 335/1/6 338/1/6
f 338/1/6 335/1/6 339/1/6
f 339/1/6 335/1/6 340/1/6
f 336/2/6 337/2/6 342/2/6
f 337/3/6 338/3/6 343/3/6
f 342/2/6 337/2/6 343/2/6
f 338/2/6 339/2/6 344/2/6
f 343/3/6 338/3/6 344/3/6
f 340/2/6 341/2/6 345/2/6
f 339/3/6 340/3/6 345/3/6
f 345/2/6 341/2/6 346/2/6
f 342/1/6 343/1/6 348/1/6
f 343/2/6 344/2/6 349/2/6
f 348/1/6 343/1/6 349/1/6
f 344/2/6 339/2/6 350/2/6
f 349/2/6 344/2/6 350/2/6
f 339/3/6 345/3/6 350/3/6
f 345/3/6 346/3/6 350/3/6
f 346/2/6 347/2/6 351/2/6
f 350/3/6 346/3/6 351/3/6
f 351/2/6 347/2/6 352/2/6
f 348/3/6 349/3/6 353/3/6
f 349/2/6 350/2/6 354/2/6
f 353/3/6 349/3/6 354/3/6
f 350/2/6 351/2/6 354/2/6
f 354/2/6 351/2/6 355/2/6
f 355/2/6 351/2/6 356/2/6
f 351/3/6 352/3/6 357/3/6
f 356/2/6 351/2/6 357/2/6
f 357/3/6 352/3/6 358/3/6
f 354/2/6 355/2/6 359/2/6
f 355/3/6 356/3/6 360/3/6
f 359/2/6 355/2/6 360/2/6
f 356/2/6 357/2/6 361/2/6
f 360/3/6 356/3/6 361/3/6
f 361/2/6 357/2/6 362/2/6
f 362/2/6 357/2/6 363/2/6
f 360/2/6 361/2/6 364/2/6
f 361/1/6 362/1/6 365/1/6
f 364/2/6 361/2/6 365/2/6
f 365/1/6 362/1/6 366/1/6
