# MagicaVoxel @ Ephtracy

# group
o 

# material
mtllib stone_a.mtl
usemtl palette

# normals
vn -1 0 0
vn 1 0 0
vn 0 0 1
vn 0 0 -1
vn 0 -1 0
vn 0 1 0

# texcoords
vt 0.923828 0.5
vt 0.927734 0.5
vt 0.931641 0.5
vt 0.935547 0.5

# verts
v -0.4 0.1 0.3
v -0.4 0.1 0.2
v -0.4 0.1 -0.2
v -0.4 0.1 -0.4
v -0.4 0.2 0.2
v -0.4 0.2 0.1
v -0.4 0.2 0
v -0.4 0.2 -0.2
v -0.4 0.3 0.3
v -0.4 0.3 0.2
v -0.4 0.3 0.1
v -0.4 0.3 0
v -0.4 0.3 -0.3
v -0.4 0.3 -0.4
v -0.4 0.4 0.2
v -0.4 0.4 -0.3
v -0.3 0 0.2
v -0.3 0 0.1
v -0.3 0 -0.2
v -0.3 0.1 0.4
v -0.3 0.1 0.3
v -0.3 0.1 0.2
v -0.3 0.1 0.1
v -0.3 0.1 -0.2
v -0.3 0.2 0.4
v -0.3 0.2 0.3
v -0.3 0.3 0.3
v -0.3 0.3 0.2
v -0.3 0.4 0.4
v -0.3 0.4 0.2
v -0.2 0 0.3
v -0.2 0 0.2
v -0.2 0 -0.2
v -0.2 0 -0.3
v -0.2 0.1 0.3
v -0.2 0.1 0.2
v -0.2 0.1 -0.2
v -0.2 0.1 -0.3
v -0.2 0.4 0.3
v -0.2 0.4 0.2
v -0.2 0.4 0.1
v -0.2 0.4 -0.1
v -0.2 0.4 -0.2
v -0.2 0.5 0.3
v -0.2 0.5 0.2
v -0.2 0.5 0.1
v -0.2 0.5 0
v -0.2 0.6 0.3
v -0.2 0.6 0
v -0.2 0.6 -0.1
v -0.2 0.6 -0.2
v 0 0.4 -0.2
v 0 0.4 -0.3
v 0 0.5 -0.2
v 0 0.6 0.3
v 0 0.6 0.1
v 0 0.6 0
v 0 0.6 -0.1
v 0 0.6 -0.2
v 0 0.6 -0.3
v 0 0.7 0.3
v 0 0.7 0.1
v 0 0.7 0
v 0 0.7 -0.1
v 0 0.7 -0.2
v 0.1 0.4 0.4
v 0.1 0.4 0.3
v 0.1 0.5 0.3
v 0.1 0.6 0.4
v 0.1 0.6 0.3
v 0.1 0.7 0.4
v 0.1 0.7 0.3
v 0.1 0.7 0.2
v 0.1 0.7 0.1
v 0.1 0.7 0
v 0.1 0.7 -0.1
v 0.1 0.8 0.3
v 0.1 0.8 0.2
v 0.1 0.8 0.1
v 0.1 0.8 -0.1
v 0 0 -0.2
v 0 0 -0.3
v 0 0.1 -0.2
v 0 0.1 -0.3
v 0 0.1 -0.4
v 0 0.2 -0.3
v 0 0.2 -0.4
v 0 0.3 -0.3
v 0 0.3 -0.4
v 0.2 0.1 0.4
v 0.2 0.1 0.3
v 0.2 0.2 0.4
v 0.2 0.2 0.3
v 0.3 0 0.3
v 0.3 0 -0.2
v 0.3 0.1 0.3
v 0.3 0.1 -0.2
v 0.3 0.1 -0.3
v 0.3 0.2 0.4
v 0.3 0.2 0.3
v 0.3 0.2 -0.2
v 0.3 0.2 -0.3
v 0.3 0.3 0.4
v 0.3 0.3 0.3
v 0.3 0.3 -0.2
v 0.3 0.4 0.3
v 0.3 0.4 -0.2
v 0.3 0.4 -0.3
v 0.3 0.5 0.4
v 0.3 0.5 0.3
v 0.3 0.5 -0.2
v 0.3 0.5 -0.3
v 0.3 0.6 0.3
v 0.3 0.6 -0.1
v 0.3 0.6 -0.2
v 0.3 0.6 -0.3
v 0.3 0.7 0.4
v 0.3 0.7 0.3
v 0.3 0.7 0.1
v 0.3 0.7 -0.1
v 0.3 0.7 -0.2
v 0.3 0.8 0.3
v 0.3 0.8 0.1
v 0.3 0.8 -0.1
v 0.4 0.1 0.3
v 0.4 0.1 -0.2
v 0.4 0.2 0
v 0.4 0.2 -0.1
v 0.4 0.3 0.3
v 0.4 0.3 0.2
v 0.4 0.3 -0.1
v 0.4 0.3 -0.2
v 0.4 0.4 0.3
v 0.4 0.4 0.2
v 0.4 0.4 0
v 0.4 0.5 0.3
v 0.4 0.5 0.2
v 0.4 0.5 0.1
v 0.4 0.5 0
v 0.4 0.5 -0.2
v 0.4 0.6 0.3
v 0.4 0.6 0.2
v 0.4 0.6 0.1
v 0.4 0.6 0
v 0.4 0.6 -0.1
v 0.4 0.6 -0.2
v 0.4 0.7 0.3
v 0.4 0.7 -0.1
v -0.3 0.1 0.4
v -0.3 0.2 0.4
v -0.3 0.4 0.4
v -0.1 0.2 0.4
v -0.1 0.3 0.4
v -0.1 0.4 0.4
v 0 0.1 0.4
v 0 0.2 0.4
v 0 0.3 0.4
v 0 0.4 0.4
v 0.1 0.1 0.4
v 0.1 0.2 0.4
v 0.1 0.4 0.4
v 0.1 0.6 0.4
v 0.1 0.7 0.4
v 0.2 0.1 0.4
v 0.2 0.2 0.4
v 0.2 0.5 0.4
v 0.2 0.6 0.4
v 0.3 0.2 0.4
v 0.3 0.3 0.4
v 0.3 0.5 0.4
v 0.3 0.7 0.4
v -0.4 0.1 0.3
v -0.4 0.3 0.3
v -0.3 0.1 0.3
v -0.3 0.2 0.3
v -0.3 0.3 0.3
v -0.2 0 0.3
v -0.2 0.1 0.3
v -0.2 0.4 0.3
v -0.2 0.5 0.3
v -0.2 0.6 0.3
v -0.1 0.4 0.3
v -0.1 0.5 0.3
v -0.1 0.6 0.3
v 0 0.1 0.3
v 0 0.4 0.3
v 0 0.6 0.3
v 0 0.7 0.3
v 0.1 0.1 0.3
v 0.1 0.4 0.3
v 0.1 0.5 0.3
v 0.1 0.6 0.3
v 0.1 0.7 0.3
v 0.1 0.8 0.3
v 0.2 0.1 0.3
v 0.2 0.2 0.3
v 0.2 0.7 0.3
v 0.2 0.8 0.3
v 0.3 0 0.3
v 0.3 0.1 0.3
v 0.3 0.2 0.3
v 0.3 0.3 0.3
v 0.3 0.4 0.3
v 0.3 0.5 0.3
v 0.3 0.6 0.3
v 0.3 0.7 0.3
v 0.3 0.8 0.3
v 0.4 0.1 0.3
v 0.4 0.3 0.3
v 0.4 0.4 0.3
v 0.4 0.5 0.3
v 0.4 0.6 0.3
v 0.4 0.7 0.3
v -0.4 0.3 0.2
v -0.4 0.4 0.2
v -0.3 0 0.2
v -0.3 0.1 0.2
v -0.3 0.3 0.2
v -0.3 0.4 0.2
v -0.2 0 0.2
v -0.2 0.1 0.2
v 0.1 0.7 -0.1
v 0.1 0.8 -0.1
v 0.3 0.6 -0.1
v 0.3 0.7 -0.1
v 0.3 0.8 -0.1
v 0.4 0.6 -0.1
v 0.4 0.7 -0.1
v -0.3 0 -0.2
v -0.3 0.1 -0.2
v -0.2 0 -0.2
v -0.2 0.1 -0.2
v -0.2 0.4 -0.2
v -0.2 0.6 -0.2
v -0.1 0.5 -0.2
v -0.1 0.6 -0.2
v 0 0 -0.2
v 0 0.1 -0.2
v 0 0.4 -0.2
v 0 0.5 -0.2
v 0 0.6 -0.2
v 0 0.7 -0.2
v 0.1 0.1 -0.2
v 0.1 0.6 -0.2
v 0.1 0.7 -0.2
v 0.2 0.6 -0.2
v 0.3 0 -0.2
v 0.3 0.1 -0.2
v 0.3 0.2 -0.2
v 0.3 0.3 -0.2
v 0.3 0.4 -0.2
v 0.3 0.5 -0.2
v 0.3 0.6 -0.2
v 0.3 0.7 -0.2
v 0.4 0.1 -0.2
v 0.4 0.3 -0.2
v 0.4 0.5 -0.2
v 0.4 0.6 -0.2
v -0.4 0.3 -0.3
v -0.4 0.4 -0.3
v -0.2 0 -0.3
v -0.2 0.1 -0.3
v 0 0 -0.3
v 0 0.1 -0.3
v 0 0.2 -0.3
v 0 0.3 -0.3
v 0 0.4 -0.3
v 0 0.6 -0.3
v 0.1 0.1 -0.3
v 0.1 0.4 -0.3
v 0.1 0.5 -0.3
v 0.1 0.6 -0.3
v 0.2 0.2 -0.3
v 0.2 0.4 -0.3
v 0.2 0.5 -0.3
v 0.2 0.6 -0.3
v 0.3 0.1 -0.3
v 0.3 0.2 -0.3
v 0.3 0.4 -0.3
v 0.3 0.5 -0.3
v 0.3 0.6 -0.3
v -0.4 0.1 -0.4
v -0.4 0.3 -0.4
v -0.3 0.1 -0.4
v -0.3 0.2 -0.4
v 0 0.1 -0.4
v 0 0.2 -0.4
v 0 0.3 -0.4
v -0.2 0 0.3
v 0.3 0 0.3
v -0.3 0 0.2
v -0.2 0 0.2
v -0.3 0 0.1
v -0.2 0 0.1
v 0.1 0 0
v 0.2 0 0
v 0.1 0 -0.1
v 0.2 0 -0.1
v -0.3 0 -0.2
v -0.2 0 -0.2
v 0 0 -0.2
v 0.3 0 -0.2
v -0.2 0 -0.3
v 0 0 -0.3
v -0.3 0.1 0.4
v 0 0.1 0.4
v 0.1 0.1 0.4
v 0.2 0.1 0.4
v -0.4 0.1 0.3
v -0.3 0.1 0.3
v -0.2 0.1 0.3
v 0 0.1 0.3
v 0.1 0.1 0.3
v 0.2 0.1 0.3
v 0.3 0.1 0.3
v 0.4 0.1 0.3
v -0.4 0.1 0.2
v -0.3 0.1 0.2
v -0.2 0.1 0.2
v -0.3 0.1 0.1
v -0.4 0.1 -0.2
v -0.3 0.1 -0.2
v -0.2 0.1 -0.2
v 0 0.1 -0.2
v 0.1 0.1 -0.2
v 0.3 0.1 -0.2
v 0.4 0.1 -0.2
v -0.3 0.1 -0.3
v -0.2 0.1 -0.3
v 0 0.1 -0.3
v 0.1 0.1 -0.3
v 0.3 0.1 -0.3
v -0.4 0.1 -0.4
v -0.3 0.1 -0.4
v 0 0.1 -0.4
v 0.2 0.2 0.4
v 0.3 0.2 0.4
v 0.2 0.2 0.3
v 0.3 0.2 0.3
v -0.4 0.3 0.3
v -0.3 0.3 0.3
v -0.4 0.3 0.2
v -0.3 0.3 0.2
v -0.4 0.3 -0.3
v 0 0.3 -0.3
v -0.4 0.3 -0.4
v 0 0.3 -0.4
v -0.3 0.4 0.4
v -0.1 0.4 0.4
v 0 0.4 0.4
v 0.1 0.4 0.4
v -0.2 0.4 0.3
v -0.1 0.4 0.3
v 0 0.4 0.3
v 0.1 0.4 0.3
v -0.4 0.4 0.2
v -0.3 0.4 0.2
v -0.2 0.4 0.2
v -0.2 0.4 0.1
v -0.2 0.4 -0.1
v -0.2 0.4 -0.2
v 0 0.4 -0.2
v -0.4 0.4 -0.3
v 0 0.4 -0.3
v -0.2 0.6 0.3
v -0.1 0.6 0.3
v 0 0.6 0.3
v -0.1 0.6 0.1
v 0 0.6 0.1
v -0.2 0.6 0
v -0.1 0.6 0
v 0 0.6 0
v -0.2 0.6 -0.1
v -0.1 0.6 -0.1
v 0 0.6 -0.1
v 0.3 0.6 -0.1
v 0.4 0.6 -0.1
v -0.2 0.6 -0.2
v -0.1 0.6 -0.2
v 0 0.6 -0.2
v 0.1 0.6 -0.2
v 0.2 0.6 -0.2
v 0.3 0.6 -0.2
v 0.4 0.6 -0.2
v 0 0.6 -0.3
v 0.1 0.6 -0.3
v 0.2 0.6 -0.3
v 0.3 0.6 -0.3
v 0.1 0.7 0.4
v 0.3 0.7 0.4
v 0 0.7 0.3
v 0.1 0.7 0.3
v 0.2 0.7 0.3
v 0.3 0.7 0.3
v 0.4 0.7 0.3
v 0.1 0.7 0.2
v 0 0.7 0.1
v 0.1 0.7 0.1
v 0.3 0.7 0.1
v 0 0.7 0
v 0.1 0.7 0
v 0 0.7 -0.1
v 0.1 0.7 -0.1
v 0.3 0.7 -0.1
v 0.4 0.7 -0.1
v 0 0.7 -0.2
v 0.1 0.7 -0.2
v 0.3 0.7 -0.2
v 0.1 0.8 0.3
v 0.2 0.8 0.3
v 0.3 0.8 0.3
v 0.1 0.8 0.2
v 0.2 0.8 0.2
v 0.1 0.8 0.1
v 0.2 0.8 0.1
v 0.3 0.8 0.1
v 0.1 0.8 -0.1
v 0.3 0.8 -0.1

# faces
f 5/3/1 2/3/1 1/3/1
f 5/4/1 3/4/1 2/4/1
f 6/4/1 3/4/1 5/4/1
f 7/4/1 3/4/1 6/4/1
f 8/3/1 4/3/1 3/3/1
f 8/4/1 3/4/1 7/4/1
f 9/3/1 5/3/1 1/3/1
f 9/3/1 6/3/1 5/3/1
f 10/3/1 6/3/1 9/3/1
f 11/4/1 7/4/1 6/4/1
f 11/3/1 6/3/1 10/3/1
f 12/3/1 8/3/1 7/3/1
f 12/4/1 7/4/1 11/4/1
f 13/3/1 4/3/1 8/3/1
f 13/3/1 8/3/1 12/3/1
f 14/3/1 4/3/1 13/3/1
f 15/3/1 12/3/1 11/3/1
f 15/3/1 13/3/1 12/3/1
f 15/3/1 11/3/1 10/3/1
f 16/3/1 13/3/1 15/3/1
f 22/3/1 18/3/1 17/3/1
f 23/4/1 19/4/1 18/4/1
f 23/3/1 18/3/1 22/3/1
f 24/4/1 19/4/1 23/4/1
f 25/4/1 21/4/1 20/4/1
f 26/4/1 21/4/1 25/4/1
f 27/3/1 26/3/1 25/3/1
f 29/3/1 27/3/1 25/3/1
f 29/3/1 28/3/1 27/3/1
f 30/3/1 28/3/1 29/3/1
f 35/4/1 32/4/1 31/4/1
f 36/4/1 32/4/1 35/4/1
f 37/4/1 34/4/1 33/4/1
f 38/4/1 34/4/1 37/4/1
f 44/3/1 40/3/1 39/3/1
f 45/2/1 41/2/1 40/2/1
f 45/3/1 40/3/1 44/3/1
f 46/3/1 42/3/1 41/3/1
f 46/2/1 41/2/1 45/2/1
f 47/3/1 42/3/1 46/3/1
f 48/2/1 45/2/1 44/2/1
f 48/2/1 46/2/1 45/2/1
f 48/2/1 47/2/1 46/2/1
f 49/3/1 42/3/1 47/3/1
f 49/2/1 47/2/1 48/2/1
f 50/2/1 43/2/1 42/2/1
f 50/3/1 42/3/1 49/3/1
f 51/2/1 43/2/1 50/2/1
f 54/3/1 53/3/1 52/3/1
f 59/3/1 53/3/1 54/3/1
f 60/3/1 53/3/1 59/3/1
f 61/2/1 56/2/1 55/2/1
f 62/1/1 57/1/1 56/1/1
f 62/2/1 56/2/1 61/2/1
f 63/2/1 58/2/1 57/2/1
f 63/1/1 57/1/1 62/1/1
f 64/1/1 59/1/1 58/1/1
f 64/2/1 58/2/1 63/2/1
f 65/1/1 59/1/1 64/1/1
f 68/3/1 67/3/1 66/3/1
f 69/3/1 68/3/1 66/3/1
f 70/3/1 68/3/1 69/3/1
f 71/2/1 70/2/1 69/2/1
f 72/2/1 70/2/1 71/2/1
f 77/2/1 73/2/1 72/2/1
f 78/3/1 74/3/1 73/3/1
f 78/2/1 73/2/1 77/2/1
f 79/2/1 76/2/1 75/2/1
f 79/3/1 74/3/1 78/3/1
f 79/2/1 75/2/1 74/2/1
f 80/2/1 76/2/1 79/2/1
f 81/4/2 82/4/2 83/4/2
f 83/4/2 82/4/2 84/4/2
f 84/4/2 85/4/2 86/4/2
f 86/4/2 85/4/2 87/4/2
f 86/3/2 87/3/2 88/3/2
f 88/3/2 87/3/2 89/3/2
f 90/4/2 91/4/2 92/4/2
f 92/4/2 91/4/2 93/4/2
f 94/4/2 95/4/2 96/4/2
f 96/4/2 95/4/2 97/4/2
f 97/4/2 98/4/2 101/4/2
f 101/4/2 98/4/2 102/4/2
f 99/4/2 100/4/2 103/4/2
f 103/4/2 100/4/2 104/4/2
f 101/3/2 102/3/2 105/3/2
f 103/3/2 104/3/2 106/3/2
f 105/3/2 102/3/2 107/3/2
f 107/3/2 102/3/2 108/3/2
f 103/3/2 106/3/2 109/3/2
f 109/3/2 106/3/2 110/3/2
f 107/2/2 108/2/2 111/2/2
f 111/2/2 108/2/2 112/2/2
f 109/2/2 110/2/2 113/2/2
f 111/1/2 112/1/2 115/1/2
f 115/1/2 112/1/2 116/1/2
f 109/2/2 113/2/2 117/2/2
f 117/2/2 113/2/2 118/2/2
f 114/2/2 115/2/2 120/2/2
f 120/2/2 115/2/2 121/2/2
f 118/1/2 119/1/2 122/1/2
f 119/2/2 120/2/2 123/2/2
f 122/1/2 119/1/2 123/1/2
f 123/2/2 120/2/2 124/2/2
f 125/4/2 126/4/2 127/4/2
f 127/4/2 126/4/2 128/4/2
f 125/4/2 127/4/2 129/4/2
f 129/4/2 127/4/2 130/4/2
f 128/4/2 126/4/2 131/4/2
f 127/3/2 128/3/2 131/3/2
f 131/4/2 126/4/2 132/4/2
f 129/3/2 130/3/2 133/3/2
f 130/4/2 127/4/2 134/4/2
f 133/3/2 130/3/2 134/3/2
f 127/3/2 131/3/2 135/3/2
f 134/4/2 127/4/2 135/4/2
f 131/3/2 132/3/2 135/3/2
f 133/2/2 134/2/2 136/2/2
f 134/3/2 135/3/2 137/3/2
f 136/2/2 134/2/2 137/2/2
f 137/3/2 135/3/2 138/3/2
f 135/3/2 132/3/2 139/3/2
f 138/3/2 135/3/2 139/3/2
f 139/3/2 132/3/2 140/3/2
f 136/1/2 137/1/2 141/1/2
f 137/2/2 138/2/2 142/2/2
f 141/1/2 137/1/2 142/1/2
f 138/3/2 139/3/2 143/3/2
f 142/2/2 138/2/2 143/2/2
f 139/2/2 140/2/2 144/2/2
f 143/3/2 139/3/2 144/3/2
f 144/2/2 140/2/2 145/2/2
f 145/2/2 140/2/2 146/2/2
f 141/2/2 142/2/2 147/2/2
f 142/2/2 143/2/2 147/2/2
f 144/2/2 145/2/2 147/2/2
f 143/2/2 144/2/2 147/2/2
f 147/2/2 145/2/2 148/2/2
f 152/4/3 150/4/3 149/4/3
f 152/3/3 151/3/3 150/3/3
f 153/3/3 151/3/3 152/3/3
f 154/3/3 151/3/3 153/3/3
f 155/4/3 152/4/3 149/4/3
f 155/4/3 153/4/3 152/4/3
f 156/4/3 153/4/3 155/4/3
f 157/2/3 154/2/3 153/2/3
f 157/4/3 153/4/3 156/4/3
f 158/2/3 154/2/3 157/2/3
f 159/3/3 156/3/3 155/3/3
f 160/4/3 157/4/3 156/4/3
f 160/3/3 156/3/3 159/3/3
f 161/3/3 158/3/3 157/3/3
f 164/4/3 160/4/3 159/4/3
f 165/4/3 157/4/3 160/4/3
f 165/4/3 160/4/3 164/4/3
f 166/3/3 162/3/3 161/3/3
f 167/2/3 163/2/3 162/2/3
f 167/3/3 162/3/3 166/3/3
f 168/4/3 157/4/3 165/4/3
f 169/3/3 161/3/3 157/3/3
f 169/4/3 157/4/3 168/4/3
f 169/3/3 166/3/3 161/3/3
f 170/2/3 167/2/3 166/2/3
f 170/3/3 166/3/3 169/3/3
f 171/2/3 163/2/3 167/2/3
f 171/2/3 167/2/3 170/2/3
f 174/3/3 173/3/3 172/3/3
f 175/3/3 173/3/3 174/3/3
f 176/3/3 173/3/3 175/3/3
f 182/3/3 180/3/3 179/3/3
f 183/2/3 181/2/3 180/2/3
f 183/3/3 180/3/3 182/3/3
f 184/2/3 181/2/3 183/2/3
f 185/4/3 178/4/3 177/4/3
f 186/2/3 183/2/3 182/2/3
f 187/1/3 184/1/3 183/1/3
f 189/4/3 185/4/3 177/4/3
f 190/2/3 183/2/3 186/2/3
f 191/1/3 187/1/3 183/1/3
f 191/2/3 183/2/3 190/2/3
f 192/2/3 188/2/3 187/2/3
f 192/1/3 187/1/3 191/1/3
f 193/2/3 188/2/3 192/2/3
f 195/4/3 189/4/3 177/4/3
f 197/2/3 194/2/3 193/2/3
f 198/2/3 194/2/3 197/2/3
f 199/4/3 196/4/3 195/4/3
f 199/4/3 195/4/3 177/4/3
f 200/4/3 196/4/3 199/4/3
f 201/4/3 196/4/3 200/4/3
f 206/1/3 198/1/3 197/1/3
f 207/1/3 198/1/3 206/1/3
f 208/4/3 201/4/3 200/4/3
f 208/4/3 202/4/3 201/4/3
f 209/3/3 203/3/3 202/3/3
f 209/4/3 202/4/3 208/4/3
f 210/2/3 204/2/3 203/2/3
f 210/3/3 203/3/3 209/3/3
f 211/1/3 205/1/3 204/1/3
f 211/2/3 204/2/3 210/2/3
f 212/2/3 206/2/3 205/2/3
f 212/1/3 205/1/3 211/1/3
f 213/2/3 206/2/3 212/2/3
f 218/3/3 215/3/3 214/3/3
f 219/3/3 215/3/3 218/3/3
f 220/3/3 217/3/3 216/3/3
f 221/3/3 217/3/3 220/3/3
f 222/2/4 223/2/4 225/2/4
f 225/2/4 223/2/4 226/2/4
f 224/2/4 225/2/4 227/2/4
f 227/2/4 225/2/4 228/2/4
f 229/4/4 230/4/4 231/4/4
f 231/4/4 230/4/4 232/4/4
f 233/2/4 234/2/4 235/2/4
f 235/2/4 234/2/4 236/2/4
f 233/2/4 235/2/4 239/2/4
f 235/1/4 236/1/4 240/1/4
f 239/2/4 235/2/4 240/2/4
f 240/1/4 236/1/4 241/1/4
f 237/4/4 238/4/4 243/4/4
f 241/1/4 242/1/4 244/1/4
f 244/1/4 242/1/4 245/1/4
f 244/2/4 245/2/4 246/2/4
f 237/4/4 243/4/4 247/4/4
f 247/4/4 243/4/4 248/4/4
f 246/2/4 245/2/4 253/2/4
f 253/2/4 245/2/4 254/2/4
f 248/4/4 249/4/4 255/4/4
f 249/4/4 250/4/4 255/4/4
f 251/3/4 252/3/4 256/3/4
f 255/4/4 250/4/4 256/4/4
f 250/3/4 251/3/4 256/3/4
f 252/2/4 253/2/4 257/2/4
f 256/3/4 252/3/4 257/3/4
f 257/2/4 253/2/4 258/2/4
f 261/4/4 262/4/4 263/4/4
f 263/4/4 262/4/4 264/4/4
f 259/3/4 260/3/4 266/3/4
f 266/3/4 260/3/4 267/3/4
f 264/3/4 265/3/4 269/3/4
f 267/3/4 268/3/4 269/3/4
f 266/3/4 267/3/4 269/3/4
f 265/3/4 266/3/4 269/3/4
f 269/3/4 268/3/4 270/3/4
f 270/3/4 268/3/4 271/3/4
f 271/3/4 268/3/4 272/3/4
f 269/4/4 270/4/4 273/4/4
f 270/3/4 271/3/4 274/3/4
f 273/4/4 270/4/4 274/4/4
f 271/2/4 272/2/4 275/2/4
f 274/3/4 271/3/4 275/3/4
f 275/2/4 272/2/4 276/2/4
f 269/4/4 273/4/4 277/4/4
f 273/3/4 274/3/4 278/3/4
f 277/4/4 273/4/4 278/4/4
f 274/2/4 275/2/4 279/2/4
f 278/3/4 274/3/4 279/3/4
f 275/1/4 276/1/4 280/1/4
f 279/2/4 275/2/4 280/2/4
f 280/1/4 276/1/4 281/1/4
f 282/3/4 283/3/4 284/3/4
f 284/3/4 283/3/4 285/3/4
f 284/4/4 285/4/4 286/4/4
f 285/3/4 283/3/4 287/3/4
f 286/4/4 285/4/4 287/4/4
f 287/3/4 283/3/4 288/3/4
f 292/4/5 290/4/5 289/4/5
f 293/3/5 292/3/5 291/3/5
f 294/4/5 290/4/5 292/4/5
f 294/3/5 292/3/5 293/3/5
f 295/4/5 294/4/5 293/4/5
f 295/4/5 290/4/5 294/4/5
f 296/4/5 290/4/5 295/4/5
f 297/4/5 295/4/5 293/4/5
f 297/3/5 296/3/5 295/3/5
f 298/4/5 290/4/5 296/4/5
f 298/3/5 296/3/5 297/3/5
f 299/4/5 297/4/5 293/4/5
f 299/4/5 298/4/5 297/4/5
f 300/4/5 298/4/5 299/4/5
f 301/4/5 298/4/5 300/4/5
f 302/4/5 290/4/5 298/4/5
f 302/4/5 298/4/5 301/4/5
f 303/4/5 301/4/5 300/4/5
f 304/4/5 301/4/5 303/4/5
f 310/4/5 306/4/5 305/4/5
f 311/4/5 306/4/5 310/4/5
f 312/3/5 307/3/5 306/3/5
f 312/4/5 306/4/5 311/4/5
f 313/4/5 308/4/5 307/4/5
f 313/3/5 307/3/5 312/3/5
f 314/4/5 308/4/5 313/4/5
f 317/3/5 310/3/5 309/3/5
f 318/4/5 311/4/5 310/4/5
f 318/3/5 310/3/5 317/3/5
f 319/4/5 311/4/5 318/4/5
f 320/4/5 318/4/5 317/4/5
f 321/4/5 320/4/5 317/4/5
f 322/4/5 320/4/5 321/4/5
f 326/4/5 316/4/5 315/4/5
f 327/4/5 316/4/5 326/4/5
f 328/3/5 323/3/5 322/3/5
f 328/3/5 322/3/5 321/3/5
f 329/3/5 323/3/5 328/3/5
f 330/3/5 325/3/5 324/3/5
f 331/4/5 326/4/5 325/4/5
f 331/3/5 325/3/5 330/3/5
f 332/4/5 326/4/5 331/4/5
f 333/3/5 328/3/5 321/3/5
f 334/4/5 329/4/5 328/4/5
f 334/3/5 328/3/5 333/3/5
f 334/4/5 330/4/5 329/4/5
f 335/4/5 330/4/5 334/4/5
f 338/4/5 337/4/5 336/4/5
f 339/4/5 337/4/5 338/4/5
f 340/3/6 341/3/6 342/3/6
f 342/3/6 341/3/6 343/3/6
f 344/3/6 345/3/6 346/3/6
f 346/3/6 345/3/6 347/3/6
f 348/3/6 349/3/6 352/3/6
f 349/2/6 350/2/6 353/2/6
f 352/3/6 349/3/6 353/3/6
f 350/3/6 351/3/6 354/3/6
f 353/2/6 350/2/6 354/2/6
f 354/3/6 351/3/6 355/3/6
f 348/3/6 352/3/6 357/3/6
f 357/3/6 352/3/6 358/3/6
f 356/3/6 357/3/6 359/3/6
f 357/3/6 358/3/6 359/3/6
f 356/3/6 359/3/6 360/3/6
f 356/3/6 360/3/6 361/3/6
f 356/3/6 361/3/6 363/3/6
f 361/3/6 362/3/6 363/3/6
f 363/3/6 362/3/6 364/3/6
f 365/2/6 366/2/6 368/2/6
f 366/1/6 367/1/6 368/1/6
f 368/1/6 367/1/6 369/1/6
f 365/2/6 368/2/6 370/2/6
f 368/2/6 369/2/6 370/2/6
f 370/2/6 369/2/6 371/2/6
f 371/2/6 369/2/6 372/2/6
f 370/3/6 371/3/6 373/3/6
f 371/2/6 372/2/6 374/2/6
f 373/3/6 371/3/6 374/3/6
f 374/2/6 372/2/6 375/2/6
f 373/2/6 374/2/6 378/2/6
f 374/1/6 375/1/6 379/1/6
f 378/2/6 374/2/6 379/2/6
f 379/1/6 375/1/6 380/1/6
f 376/2/6 377/2/6 383/2/6
f 383/2/6 377/2/6 384/2/6
f 380/3/6 381/3/6 385/3/6
f 381/2/6 382/2/6 386/2/6
f 385/3/6 381/3/6 386/3/6
f 382/1/6 383/1/6 387/1/6
f 386/2/6 382/2/6 387/2/6
f 387/1/6 383/1/6 388/1/6
f 389/2/6 390/2/6 392/2/6
f 392/2/6 390/2/6 393/2/6
f 393/2/6 390/2/6 394/2/6
f 391/2/6 392/2/6 396/2/6
f 391/2/6 396/2/6 397/2/6
f 397/2/6 396/2/6 398/2/6
f 394/2/6 395/2/6 399/2/6
f 397/1/6 398/1/6 400/1/6
f 400/1/6 398/1/6 401/1/6
f 400/2/6 401/2/6 402/2/6
f 402/2/6 401/2/6 403/2/6
f 399/2/6 395/2/6 404/2/6
f 404/2/6 395/2/6 405/2/6
f 402/1/6 403/1/6 406/1/6
f 403/2/6 404/2/6 407/2/6
f 406/1/6 403/1/6 407/1/6
f 407/2/6 404/2/6 408/2/6
f 409/2/6 410/2/6 412/2/6
f 410/1/6 411/1/6 413/1/6
f 412/2/6 410/2/6 413/2/6
f 412/3/6 413/3/6 414/3/6
f 413/1/6 411/1/6 415/1/6
f 414/3/6 413/3/6 415/3/6
f 415/1/6 411/1/6 416/1/6
f 414/2/6 415/2/6 417/2/6
f 415/2/6 416/2/6 417/2/6
f 417/2/6 416/2/6 418/2/6
